#!OML:ASF G:\JayActor3\Patient Classification 1\Patient 1\Session 5\male.ASF
:FULLY-SPECIFIED
:DEGREES
776
root -24.3361 16.7315 -6.81298 545.616 -84.1499 -549.218
lowerback 1.13738 -0.842325 -0.718534
upperback 1.87254 -1.13765 -0.897161
thorax 1.27538 -0.580719 -0.516145
lowerneck -6.0164 1.13389 2.84647
upperneck 4.36924 1.23431 0.557109
head 2.43606 0.677624 -0.263946
rclavicle -2.76202e-014 -3.57812e-015
rhumerus -32.2427 -6.09379 -86.872
rradius 28.0107
rwrist 1.75648
rhand -18.5362 -6.65816
rfingers 7.12502
rthumb 7.75286 -36.496
lclavicle -2.76202e-014 -3.57812e-015
lhumerus -29.8941 -0.00679717 83.8561
lradius 34.0528
lwrist 20.6311
lhand -17.6565 13.5433
lfingers 7.12502
lthumb 8.60188 43.3481
rfemur -31.2158 9.04569 20.6958
rtibia 42.9763
rfoot -20.9208 -15.9272
rtoes -1.72472
lfemur 11.0787 9.26111 -24.2895
ltibia 11.9981
lfoot -15.6675 4.30851
ltoes -5.47057
777
root -24.4662 16.7306 -6.81759 546.649 -84.1088 -550.171
lowerback 1.12846 -0.822215 -0.78092
upperback 1.86507 -1.11089 -0.912866
thorax 1.27371 -0.568066 -0.497368
lowerneck -6.01352 1.13081 2.85693
upperneck 4.27287 1.23262 0.527695
head 2.4037 0.67505 -0.275382
rclavicle 9.60378e-015 1.39149e-015
rhumerus -32.1908 -6.11569 -86.8297
rradius 27.9864
rwrist 1.77777
rhand -18.5535 -6.74925
rfingers 7.12502
rthumb 7.73617 -36.5877
lclavicle 9.60378e-015 1.39149e-015
lhumerus -29.8081 -0.125795 83.9598
lradius 34.2507
lwrist 20.7142
lhand -17.6661 13.5553
lfingers 7.12502
lthumb 8.59261 43.3604
rfemur -31.596 9.08991 20.571
rtibia 41.4763
rfoot -20.6871 -15.7835
rtoes -2.65923
lfemur 12.416 9.50679 -24.3502
ltibia 10.2751
lfoot -15.1443 4.26412
ltoes -5.61049
778
root -24.5971 16.7288 -6.82275 547.717 -84.0639 -551.162
lowerback 1.11709 -0.800443 -0.850545
upperback 1.86027 -1.0819 -0.928203
thorax 1.27625 -0.554429 -0.474227
lowerneck -6.02701 1.12895 2.85507
upperneck 4.1836 1.23222 0.509062
head 2.37657 0.673344 -0.281118
rclavicle 8.3707e-015 -1.98785e-015
rhumerus -32.1321 -6.1428 -86.7787
rradius 27.9383
rwrist 1.78985
rhand -18.5894 -6.87656
rfingers 7.12502
rthumb 7.70146 -36.7163
lclavicle 8.3707e-015 -1.98785e-015
lhumerus -29.729 -0.233874 84.0716
lradius 34.4254
lwrist 20.7849
lhand -17.6718 13.5703
lfingers 7.12502
lthumb 8.58703 43.3757
rfemur -31.9412 9.11992 20.4438
rtibia 39.9924
rfoot -20.4298 -15.5661
rtoes -4.0211
lfemur 13.9018 9.70337 -24.4298
ltibia 8.28567
lfoot -14.4819 4.30595
ltoes -5.78331
779
root -24.7289 16.7261 -6.8283 548.86 -84.0165 -552.23
lowerback 1.10021 -0.778325 -0.929703
upperback 1.85764 -1.05238 -0.944311
thorax 1.28423 -0.540678 -0.446644
lowerneck -6.03775 1.12849 2.84878
upperneck 4.0856 1.23406 0.493254
head 2.34602 0.67266 -0.28512
rclavicle 2.6485e-014 7.55382e-015
rhumerus -32.0693 -6.17101 -86.7211
rradius 27.8743
rwrist 1.79601
rhand -18.631 -6.9656
rfingers 7.12502
rthumb 7.66136 -36.8068
lclavicle 2.6485e-014 7.55382e-015
lhumerus -29.6565 -0.337241 84.1937
lradius 34.5729
lwrist 20.8558
lhand -17.6779 13.5849
lfingers 7.12502
lthumb 8.58118 43.3906
rfemur -32.2515 9.14112 20.309
rtibia 38.531
rfoot -20.203 -15.2729
rtoes -5.65106
lfemur 15.7136 9.90048 -24.525
ltibia 5.70931
lfoot -13.5389 4.35885
ltoes -5.94263
780
root -24.8617 16.723 -6.83415 550.082 -83.9734 -553.381
lowerback 1.07934 -0.761035 -1.01903
upperback 1.85193 -1.02922 -0.960962
thorax 1.2914 -0.530224 -0.413946
lowerneck -6.01697 1.12836 2.86026
upperneck 3.96619 1.23722 0.458776
head 2.30294 0.672079 -0.298216
rclavicle -1.45051e-015 -4.77083e-015
rhumerus -32.0168 -6.19897 -86.6582
rradius 27.8029
rwrist 1.81411
rhand -18.6694 -7.16029
rfingers 7.12502
rthumb 7.62428 -37.0029
lclavicle -1.45051e-015 -4.77083e-015
lhumerus -29.6043 -0.4356 84.3237
lradius 34.693
lwrist 20.93
lhand -17.6891 13.5886
lfingers 7.12502
lthumb 8.57037 43.3947
rfemur -32.5264 9.16977 20.1591
rtibia 37.0988
rfoot -20.0945 -14.9081
rtoes -7.28393
lfemur 19.2394 10.0931 -24.6416
ltibia -1.27222e-014
lfoot -11.1557 4.3454
ltoes -6.10474
781
root -24.9957 16.7207 -6.84018 551.36 -83.9389 -554.588
lowerback 1.04876 -0.748276 -1.11224
upperback 1.84573 -1.01188 -0.977081
thorax 1.30354 -0.522733 -0.378669
lowerneck -5.97514 1.12795 2.8769
upperneck 3.82938 1.24095 0.415043
head 2.25046 0.67138 -0.315195
rclavicle 3.29237e-015 1.03368e-014
rhumerus -31.9797 -6.22363 -86.5905
rradius 27.7469
rwrist 1.83891
rhand -18.7058 -7.45754
rfingers 7.12502
rthumb 7.58914 -37.3014
lclavicle 3.29237e-015 1.03368e-014
lhumerus -29.5609 -0.535101 84.4653
lradius 34.7757
lwrist 21.0051
lhand -17.705 13.5845
lfingers 7.12502
lthumb 8.55507 43.3912
rfemur -32.7676 9.20467 19.9991
rtibia 35.7108
rfoot -20.0804 -14.5362
rtoes -8.94609
lfemur 19.6612 10.2684 -24.747
ltibia -4.45278e-014
lfoot -11.3514 4.46911
ltoes -6.3467
782
root -25.131 16.7183 -6.84666 552.658 -83.918 -555.813
lowerback 1.00887 -0.741126 -1.20596
upperback 1.83794 -1.00175 -0.990602
thorax 1.31932 -0.518859 -0.340576
lowerneck -5.90636 1.12485 2.90762
upperneck 3.67016 1.24202 0.352955
head 2.18603 0.668787 -0.340599
rclavicle 7.68116e-015 5.06901e-015
rhumerus -31.9566 -6.24771 -86.5183
rradius 27.7017
rwrist 1.87263
rhand -18.7499 -7.61172
rfingers 7.12502
rthumb 7.54658 -37.4571
lclavicle 7.68116e-015 5.06901e-015
lhumerus -29.5248 -0.641926 84.6205
lradius 34.8165
lwrist 21.0768
lhand -17.7352 13.5735
lfingers 7.12502
lthumb 8.5259 43.3814
rfemur -32.9846 9.26875 19.8243
rtibia 34.3774
rfoot -20.2172 -14.14
rtoes -10.1596
lfemur 20.0861 10.4241 -24.8431
ltibia 0
lfoot -11.5171 4.57439
ltoes -6.73603
783
root -25.2679 16.7159 -6.85375 554.009 -83.9164 -557.086
lowerback 0.954511 -0.740757 -1.30291
upperback 1.82981 -1.00025 -1.00066
thorax 1.343 -0.51937 -0.297366
lowerneck -5.83903 1.11862 2.93294
upperneck 3.51072 1.23906 0.292599
head 2.12186 0.664192 -0.364592
rclavicle -8.03214e-015 -4.87022e-015
rhumerus -31.9444 -6.28335 -86.4367
rradius 27.668
rwrist 1.93233
rhand -18.8006 -7.6185
rfingers 7.12502
rthumb 7.49764 -37.4656
lclavicle -8.03214e-015 -4.87022e-015
lhumerus -29.4876 -0.753825 84.7878
lradius 34.8108
lwrist 21.1302
lhand -17.758 13.5735
lfingers 7.12502
lthumb 8.5039 43.3822
rfemur -33.1821 9.35246 19.635
rtibia 33.1122
rfoot -20.4465 -13.7827
rtoes -10.9168
lfemur 20.5103 10.5521 -24.9267
ltibia 9.54166e-015
lfoot -11.658 4.63583
ltoes -7.18776
784
root -25.4064 16.7132 -6.86142 555.367 -83.9431 -558.361
lowerback 0.885308 -0.747964 -1.39187
upperback 1.82327 -1.00836 -1.00607
thorax 1.37665 -0.524635 -0.254145
lowerneck -5.79288 1.11103 2.94475
upperneck 3.36621 1.23383 0.241297
head 2.06639 0.658744 -0.38333
rclavicle -1.40081e-015 -2.88238e-015
rhumerus -31.9398 -6.33721 -86.3443
rradius 27.6324
rwrist 1.99649
rhand -18.8666 -7.61439
rfingers 7.12502
rthumb 7.43393 -37.4638
lclavicle -1.40081e-015 -2.88238e-015
lhumerus -29.4437 -0.878539 84.9686
lradius 34.7528
lwrist 21.1621
lhand -17.7668 13.5916
lfingers 7.12502
lthumb 8.49535 43.4007
rfemur -33.3455 9.43966 19.4418
rtibia 31.8938
rfoot -20.7199 -13.4785
rtoes -11.1779
lfemur 20.9343 10.6451 -24.9892
ltibia -1.59028e-014
lfoot -11.7647 4.65658
ltoes -7.75029
